<svg width="25" height="25" viewBox="0 0 25 25" fill="none" xmlns="http://www.w3.org/2000/svg">
<g id="3">
<path id="Vector" d="M1.06315 12.1305C1.0162 17.6628 5.8099 22.1886 11.7702 22.2392C17.7304 22.2898 22.6002 17.846 22.6472 12.3137C22.6941 6.78142 17.9004 2.25563 11.9402 2.20505C5.97991 2.15447 1.1101 6.59826 1.06315 12.1305Z" fill="#333333"/>
<path id="Vector_2" d="M10.2865 21.9676C15.6637 23.2691 21.0778 19.9651 22.3793 14.5879C23.6808 9.21068 20.3768 3.79653 14.9996 2.49503C9.62239 1.19353 4.20823 4.49754 2.90673 9.87474C1.60524 15.2519 4.90925 20.6661 10.2865 21.9676Z" fill="white"/>
<path id="Vector_3" d="M4.51997 12.1604C4.48672 16.0793 7.86372 19.2852 12.0627 19.3208C16.2617 19.3564 19.6927 16.2084 19.7259 12.2894C19.7592 8.3705 16.3822 5.16469 12.1832 5.12905C7.98415 5.09342 4.55323 8.24147 4.51997 12.1604Z" fill="#333333"/>
<path id="Vector_4" d="M10.943 19.1278C14.7513 20.053 18.5886 17.7159 19.5139 13.9076C20.4391 10.0993 18.102 6.26199 14.2937 5.33671C10.4854 4.41143 6.64811 6.74857 5.72283 10.5569C4.79756 14.3651 7.1347 18.2025 10.943 19.1278Z" fill="#F0EA8F"/>
<path id="Vector_5" d="M9.59128 12.2045C9.57228 14.4431 11.3716 16.2732 13.6101 16.2922C15.8487 16.3112 17.6788 14.5119 17.6978 12.2733C17.7168 10.0348 15.9175 8.20466 13.6789 8.18567C11.4404 8.16667 9.61027 9.96597 9.59128 12.2045Z" fill="white"/>
</g>
</svg>
